<mxfile host="app.diagrams.net" modified="2022-09-22T05:32:14.648Z" agent="5.0 (Windows NT 10.0; Win64; x64) AppleWebKit/537.36 (KHTML, like Gecko) Chrome/105.0.0.0 Safari/537.36" etag="0S_6GiytqYdsr0U2GrUO" version="20.3.3" type="github">
  <diagram name="Page-1" id="c7558073-3199-34d8-9f00-42111426c3f3">
    <mxGraphModel dx="716" dy="417" grid="1" gridSize="10" guides="1" tooltips="1" connect="1" arrows="1" fold="1" page="1" pageScale="1" pageWidth="826" pageHeight="1169" background="none" math="0" shadow="0">
      <root>
        <mxCell id="0" />
        <mxCell id="1" parent="0" />
        <mxCell id="U9Ao4unvzbeJ5qL8lZ6b-152" style="edgeStyle=orthogonalEdgeStyle;rounded=0;orthogonalLoop=1;jettySize=auto;html=1;exitX=1;exitY=0.5;exitDx=0;exitDy=0;entryX=0.5;entryY=1;entryDx=0;entryDy=0;strokeWidth=3;fontSize=25;fontColor=#666666;startArrow=none;shape=flexArrow;startFill=0;strokeColor=#666666;" parent="1" source="U9Ao4unvzbeJ5qL8lZ6b-98" target="U9Ao4unvzbeJ5qL8lZ6b-147" edge="1">
          <mxGeometry relative="1" as="geometry" />
        </mxCell>
        <mxCell id="U9Ao4unvzbeJ5qL8lZ6b-98" value="&lt;font color=&quot;#4d4d4d&quot; style=&quot;font-size: 40px;&quot;&gt;&lt;b&gt;Event Store&lt;/b&gt;&lt;/font&gt;" style="shape=datastore;whiteSpace=wrap;html=1;sketch=1;fillColor=#f8cecc;strokeColor=#b85450;strokeWidth=5;" parent="1" vertex="1">
          <mxGeometry x="894" y="341.75" width="161" height="256.5" as="geometry" />
        </mxCell>
        <mxCell id="U9Ao4unvzbeJ5qL8lZ6b-143" style="edgeStyle=orthogonalEdgeStyle;shape=flexArrow;rounded=0;orthogonalLoop=1;jettySize=auto;html=1;exitX=0.5;exitY=1;exitDx=0;exitDy=0;strokeWidth=3;fontSize=25;fontColor=#666666;strokeColor=#666666;" parent="1" source="U9Ao4unvzbeJ5qL8lZ6b-153" target="U9Ao4unvzbeJ5qL8lZ6b-131" edge="1">
          <mxGeometry relative="1" as="geometry" />
        </mxCell>
        <mxCell id="U9Ao4unvzbeJ5qL8lZ6b-154" style="edgeStyle=orthogonalEdgeStyle;shape=flexArrow;rounded=0;orthogonalLoop=1;jettySize=auto;html=1;exitX=0.75;exitY=1;exitDx=0;exitDy=0;entryX=0.5;entryY=0;entryDx=0;entryDy=0;strokeWidth=3;fontSize=25;fontColor=#666666;startArrow=none;startFill=0;strokeColor=#666666;" parent="1" source="U9Ao4unvzbeJ5qL8lZ6b-99" target="U9Ao4unvzbeJ5qL8lZ6b-153" edge="1">
          <mxGeometry relative="1" as="geometry" />
        </mxCell>
        <mxCell id="U9Ao4unvzbeJ5qL8lZ6b-156" style="edgeStyle=orthogonalEdgeStyle;shape=flexArrow;rounded=0;orthogonalLoop=1;jettySize=auto;html=1;exitX=0.25;exitY=1;exitDx=0;exitDy=0;entryX=0.5;entryY=0;entryDx=0;entryDy=0;strokeWidth=3;fontSize=25;fontColor=#666666;startArrow=none;startFill=0;strokeColor=#666666;" parent="1" source="U9Ao4unvzbeJ5qL8lZ6b-99" target="U9Ao4unvzbeJ5qL8lZ6b-155" edge="1">
          <mxGeometry relative="1" as="geometry" />
        </mxCell>
        <mxCell id="U9Ao4unvzbeJ5qL8lZ6b-99" value="&lt;font color=&quot;#666666&quot; style=&quot;font-size: 60px;&quot;&gt;&lt;b&gt;Event Bus&lt;/b&gt;&lt;/font&gt;" style="rounded=1;whiteSpace=wrap;html=1;strokeWidth=5;fillWeight=4;hachureGap=8;hachureAngle=45;fillColor=#E6E6E6;sketch=1;strokeColor=#999999;rotation=90;dashed=1;" parent="1" vertex="1">
          <mxGeometry x="1239" y="394" width="540" height="158" as="geometry" />
        </mxCell>
        <mxCell id="U9Ao4unvzbeJ5qL8lZ6b-159" style="edgeStyle=orthogonalEdgeStyle;shape=flexArrow;rounded=0;orthogonalLoop=1;jettySize=auto;html=1;exitX=0.5;exitY=0;exitDx=0;exitDy=0;strokeWidth=3;fontSize=25;fontColor=#666666;startArrow=none;startFill=0;strokeColor=#666666;" parent="1" source="U9Ao4unvzbeJ5qL8lZ6b-101" target="U9Ao4unvzbeJ5qL8lZ6b-100" edge="1">
          <mxGeometry relative="1" as="geometry" />
        </mxCell>
        <mxCell id="U9Ao4unvzbeJ5qL8lZ6b-101" value="&lt;font size=&quot;1&quot; color=&quot;#4d4d4d&quot; style=&quot;&quot;&gt;&lt;b style=&quot;font-size: 40px;&quot;&gt;Command Handler&lt;/b&gt;&lt;/font&gt;" style="rounded=1;whiteSpace=wrap;html=1;strokeWidth=5;fillWeight=4;hachureGap=8;hachureAngle=45;fillColor=#E6FFCC;sketch=1;strokeColor=#66CC00;rotation=90;" parent="1" vertex="1">
          <mxGeometry x="184.5" y="409.5" width="304" height="117" as="geometry" />
        </mxCell>
        <mxCell id="U9Ao4unvzbeJ5qL8lZ6b-102" value="&lt;font color=&quot;#666666&quot; style=&quot;&quot;&gt;&lt;font style=&quot;font-size: 40px;&quot;&gt;&lt;b&gt;Event Handler&lt;/b&gt;&lt;/font&gt;&lt;br&gt;&lt;/font&gt;" style="rounded=1;whiteSpace=wrap;html=1;strokeWidth=5;fillWeight=4;hachureGap=8;hachureAngle=45;fillColor=#E6E6E6;sketch=1;strokeColor=#999999;rotation=0;dashed=1;" parent="1" vertex="1">
          <mxGeometry x="709" y="116" width="240" height="100" as="geometry" />
        </mxCell>
        <mxCell id="U9Ao4unvzbeJ5qL8lZ6b-106" value="" style="edgeStyle=segmentEdgeStyle;endArrow=classic;html=1;rounded=0;fontSize=20;fontColor=#666666;shape=flexArrow;strokeWidth=3;strokeColor=#666666;" parent="1" source="U9Ao4unvzbeJ5qL8lZ6b-102" target="U9Ao4unvzbeJ5qL8lZ6b-101" edge="1">
          <mxGeometry width="50" height="50" relative="1" as="geometry">
            <mxPoint x="710" y="274" as="sourcePoint" />
            <mxPoint x="379" y="270" as="targetPoint" />
          </mxGeometry>
        </mxCell>
        <mxCell id="U9Ao4unvzbeJ5qL8lZ6b-160" style="edgeStyle=orthogonalEdgeStyle;shape=flexArrow;rounded=0;orthogonalLoop=1;jettySize=auto;html=1;exitX=0.25;exitY=0;exitDx=0;exitDy=0;entryX=0.5;entryY=1;entryDx=0;entryDy=0;strokeColor=#666666;strokeWidth=3;fontSize=30;fontColor=#4D4D4D;startArrow=none;startFill=0;endArrow=none;endFill=0;" parent="1" source="U9Ao4unvzbeJ5qL8lZ6b-126" target="U9Ao4unvzbeJ5qL8lZ6b-101" edge="1">
          <mxGeometry relative="1" as="geometry" />
        </mxCell>
        <mxCell id="U9Ao4unvzbeJ5qL8lZ6b-161" style="edgeStyle=orthogonalEdgeStyle;shape=flexArrow;rounded=0;orthogonalLoop=1;jettySize=auto;html=1;exitX=0.75;exitY=0;exitDx=0;exitDy=0;entryX=0.5;entryY=1;entryDx=0;entryDy=0;strokeColor=#666666;strokeWidth=3;fontSize=30;fontColor=#4D4D4D;startArrow=none;startFill=0;endArrow=none;endFill=0;" parent="1" source="U9Ao4unvzbeJ5qL8lZ6b-126" target="U9Ao4unvzbeJ5qL8lZ6b-133" edge="1">
          <mxGeometry relative="1" as="geometry" />
        </mxCell>
        <mxCell id="U9Ao4unvzbeJ5qL8lZ6b-126" value="&lt;font size=&quot;1&quot; style=&quot;&quot;&gt;&lt;b style=&quot;font-size: 60px;&quot;&gt;Interface&lt;/b&gt;&lt;/font&gt;" style="rounded=1;whiteSpace=wrap;html=1;strokeWidth=5;fillWeight=4;hachureGap=8;hachureAngle=45;fillColor=#E6E6E6;sketch=1;strokeColor=#999999;fontSize=20;fontColor=#666666;rotation=90;dashed=1;" parent="1" vertex="1">
          <mxGeometry x="-303.75" y="597.75" width="790" height="132.5" as="geometry" />
        </mxCell>
        <mxCell id="U9Ao4unvzbeJ5qL8lZ6b-157" style="edgeStyle=orthogonalEdgeStyle;shape=flexArrow;rounded=0;orthogonalLoop=1;jettySize=auto;html=1;exitX=0;exitY=0.5;exitDx=0;exitDy=0;strokeWidth=3;fontSize=25;fontColor=#666666;startArrow=none;startFill=0;strokeColor=#666666;" parent="1" source="U9Ao4unvzbeJ5qL8lZ6b-131" target="U9Ao4unvzbeJ5qL8lZ6b-132" edge="1">
          <mxGeometry relative="1" as="geometry" />
        </mxCell>
        <mxCell id="U9Ao4unvzbeJ5qL8lZ6b-131" value="&lt;font color=&quot;#666666&quot; style=&quot;&quot;&gt;&lt;font style=&quot;font-size: 40px;&quot;&gt;&lt;b&gt;Event Handler&lt;/b&gt;&lt;/font&gt;&lt;br&gt;&lt;/font&gt;" style="rounded=1;whiteSpace=wrap;html=1;strokeWidth=5;fillWeight=4;hachureGap=8;hachureAngle=45;fillColor=#E6E6E6;sketch=1;strokeColor=#999999;rotation=0;dashed=1;" parent="1" vertex="1">
          <mxGeometry x="917" y="805.87" width="209" height="110" as="geometry" />
        </mxCell>
        <mxCell id="U9Ao4unvzbeJ5qL8lZ6b-132" value="&lt;font size=&quot;1&quot; color=&quot;#4d4d4d&quot; style=&quot;&quot;&gt;&lt;b style=&quot;font-size: 40px;&quot;&gt;Materialized Views&lt;br&gt;( Projections )&lt;br&gt;&lt;/b&gt;&lt;/font&gt;" style="shape=datastore;whiteSpace=wrap;html=1;sketch=1;fillColor=#E6E6E6;strokeColor=#999999;strokeWidth=5;fontColor=#333333;dashed=1;" parent="1" vertex="1">
          <mxGeometry x="510" y="699.56" width="290" height="322.63" as="geometry" />
        </mxCell>
        <mxCell id="U9Ao4unvzbeJ5qL8lZ6b-133" value="&lt;font color=&quot;#666666&quot; style=&quot;font-size: 40px;&quot;&gt;&lt;b&gt;Query Handler&lt;/b&gt;&lt;/font&gt;" style="rounded=1;whiteSpace=wrap;html=1;strokeWidth=5;fillWeight=4;hachureGap=8;hachureAngle=45;fillColor=#E6E6E6;sketch=1;strokeColor=#999999;rotation=90;dashed=1;" parent="1" vertex="1">
          <mxGeometry x="221.75" y="800" width="232.25" height="121.75" as="geometry" />
        </mxCell>
        <mxCell id="U9Ao4unvzbeJ5qL8lZ6b-139" style="edgeStyle=orthogonalEdgeStyle;shape=flexArrow;rounded=0;orthogonalLoop=1;jettySize=auto;html=1;exitX=0;exitY=0.5;exitDx=0;exitDy=0;entryX=0.5;entryY=0;entryDx=0;entryDy=0;strokeWidth=3;fontSize=25;fontColor=#666666;strokeColor=#666666;" parent="1" source="U9Ao4unvzbeJ5qL8lZ6b-132" target="U9Ao4unvzbeJ5qL8lZ6b-133" edge="1">
          <mxGeometry relative="1" as="geometry" />
        </mxCell>
        <mxCell id="U9Ao4unvzbeJ5qL8lZ6b-140" style="edgeStyle=orthogonalEdgeStyle;shape=flexArrow;rounded=0;orthogonalLoop=1;jettySize=auto;html=1;entryX=0.5;entryY=1;entryDx=0;entryDy=0;strokeWidth=3;fontSize=25;fontColor=#666666;exitX=0.5;exitY=0;exitDx=0;exitDy=0;strokeColor=#666666;" parent="1" source="U9Ao4unvzbeJ5qL8lZ6b-147" target="U9Ao4unvzbeJ5qL8lZ6b-99" edge="1">
          <mxGeometry relative="1" as="geometry">
            <mxPoint x="1330" y="380" as="sourcePoint" />
          </mxGeometry>
        </mxCell>
        <mxCell id="U9Ao4unvzbeJ5qL8lZ6b-100" value="&lt;font size=&quot;1&quot; color=&quot;#4d4d4d&quot; style=&quot;&quot;&gt;&lt;b style=&quot;font-size: 60px;&quot;&gt;Domain&lt;/b&gt;&lt;/font&gt;" style="rounded=1;whiteSpace=wrap;html=1;strokeWidth=5;fillWeight=4;hachureGap=8;hachureAngle=45;fillColor=#9999FF;sketch=1;sketch=1;strokeColor=#4C0099;align=center;" parent="1" vertex="1">
          <mxGeometry x="500" y="316" width="290" height="307" as="geometry" />
        </mxCell>
        <mxCell id="U9Ao4unvzbeJ5qL8lZ6b-147" value="&lt;font color=&quot;#4d4d4d&quot; style=&quot;font-size: 40px;&quot;&gt;&lt;b&gt;Producer&lt;/b&gt;&lt;/font&gt;" style="rounded=1;whiteSpace=wrap;html=1;strokeWidth=5;fillWeight=4;hachureGap=8;hachureAngle=45;fillColor=#E6E6E6;sketch=1;sketch=1;strokeColor=#999999;rotation=90;dashed=1;" parent="1" vertex="1">
          <mxGeometry x="1140" y="426" width="263" height="90" as="geometry" />
        </mxCell>
        <mxCell id="U9Ao4unvzbeJ5qL8lZ6b-151" style="edgeStyle=orthogonalEdgeStyle;shape=flexArrow;rounded=0;orthogonalLoop=1;jettySize=auto;html=1;strokeWidth=3;fontSize=25;fontColor=#666666;strokeColor=#666666;" parent="1" source="U9Ao4unvzbeJ5qL8lZ6b-100" target="U9Ao4unvzbeJ5qL8lZ6b-98" edge="1">
          <mxGeometry relative="1" as="geometry">
            <mxPoint x="800" y="480" as="sourcePoint" />
            <mxPoint x="904" y="517.5" as="targetPoint" />
          </mxGeometry>
        </mxCell>
        <mxCell id="U9Ao4unvzbeJ5qL8lZ6b-153" value="&lt;font color=&quot;#4d4d4d&quot; style=&quot;font-size: 40px;&quot;&gt;&lt;b&gt;Consumer&lt;/b&gt;&lt;/font&gt;" style="rounded=1;whiteSpace=wrap;html=1;strokeWidth=5;fillWeight=4;hachureGap=8;hachureAngle=45;fillColor=#E6E6E6;sketch=1;sketch=1;strokeColor=#999999;rotation=90;dashed=1;" parent="1" vertex="1">
          <mxGeometry x="1140" y="815.87" width="263" height="90" as="geometry" />
        </mxCell>
        <mxCell id="U9Ao4unvzbeJ5qL8lZ6b-158" style="edgeStyle=orthogonalEdgeStyle;shape=flexArrow;rounded=0;orthogonalLoop=1;jettySize=auto;html=1;exitX=0.5;exitY=1;exitDx=0;exitDy=0;entryX=1;entryY=0.5;entryDx=0;entryDy=0;strokeWidth=3;fontSize=25;fontColor=#666666;startArrow=none;startFill=0;strokeColor=#666666;" parent="1" source="U9Ao4unvzbeJ5qL8lZ6b-155" target="U9Ao4unvzbeJ5qL8lZ6b-102" edge="1">
          <mxGeometry relative="1" as="geometry" />
        </mxCell>
        <mxCell id="U9Ao4unvzbeJ5qL8lZ6b-155" value="&lt;font color=&quot;#4d4d4d&quot; style=&quot;font-size: 40px;&quot;&gt;&lt;b&gt;Consumer&lt;/b&gt;&lt;/font&gt;" style="rounded=1;whiteSpace=wrap;html=1;strokeWidth=5;fillWeight=4;hachureGap=8;hachureAngle=45;fillColor=#E6E6E6;sketch=1;sketch=1;strokeColor=#999999;rotation=90;dashed=1;" parent="1" vertex="1">
          <mxGeometry x="1140" y="120" width="263" height="90" as="geometry" />
        </mxCell>
      </root>
    </mxGraphModel>
  </diagram>
</mxfile>
